HIERARCHY
ROOT hip
{
  OFFSET 0.0 0.0 0.0
  CHANNELS 6 Xposition Yposition Zposition Zrotation Yrotation Xrotation
  JOINT abdomen
  {
    OFFSET 0.0 20.6881 -0.73152
    CHANNELS 3 Zrotation Xrotation Yrotation
    JOINT chest
    {
      OFFSET 0.0 11.7043 -0.48768
      CHANNELS 3 Zrotation Xrotation Yrotation
      JOINT neck
      {
        OFFSET 0.0 22.1894 -2.19456
        CHANNELS 3 Zrotation Xrotation Yrotation
        JOINT head
        {
          OFFSET -0.24384 7.07133 1.2192
          CHANNELS 3 Zrotation Xrotation Yrotation
          JOINT leftEye
          {
            OFFSET 4.14528 8.04674 8.04672
            CHANNELS 3 Zrotation Xrotation Yrotation
            End Site
            {
              OFFSET 1.0 0.0 0.0
            }
          }
          JOINT rightEye
          {
            OFFSET -3.6576 8.04674 8.04672
            CHANNELS 3 Zrotation Xrotation Yrotation
            End Site
            {
              OFFSET 1.0 0.0 0.0
            }
          }
        }
      }
      JOINT rCollar
      {
        OFFSET -2.68224 19.2634 -4.8768
        CHANNELS 3 Zrotation Xrotation Yrotation
        JOINT rShldr
        {
          OFFSET -8.77824 -1.95073 1.46304
          CHANNELS 3 Zrotation Xrotation Yrotation
          JOINT rForeArm
          {
            OFFSET -28.1742 -1.7115 0.48768
            CHANNELS 3 Zrotation Xrotation Yrotation
            JOINT rHand
            {
              OFFSET -22.5879 0.773209 7.07136
              CHANNELS 3 Zrotation Xrotation Yrotation
              JOINT rThumb1
              {
                OFFSET -1.2192 -0.487915 3.41376
                CHANNELS 3 Zrotation Xrotation Yrotation
                JOINT rThumb2
                {
                  OFFSET -3.37035 -0.52449 3.41376
                  CHANNELS 3 Zrotation Xrotation Yrotation
                  End Site
                  {
                    OFFSET -1.78271 -1.18214 1.43049
                  }
                }
              }
              JOINT rIndex1
              {
                OFFSET -7.75947 0.938293 5.60832
                CHANNELS 3 Zrotation Xrotation Yrotation
                JOINT rIndex2
                {
                  OFFSET -2.54057 -0.884171 1.56538
                  CHANNELS 3 Zrotation Xrotation Yrotation
                  End Site
                  {
                    OFFSET -1.62519 -0.234802 1.16502
                  }
                }
              }
              JOINT rMid1
              {
                OFFSET -8.24714 1.18213 3.41376
                CHANNELS 3 Zrotation Xrotation Yrotation
                JOINT rMid2
                {
                  OFFSET -3.10165 -0.590103 1.0647
                  CHANNELS 3 Zrotation Xrotation Yrotation
                  End Site
                  {
                    OFFSET -2.48547 -0.328903 0.83742
                  }
                }
              }
              JOINT rRing1
              {
                OFFSET -8.82822 0.546677 1.51678
                CHANNELS 3 Zrotation Xrotation Yrotation
                JOINT rRing2
                {
                  OFFSET -2.60934 -0.819778 -0.0198488
                  CHANNELS 3 Zrotation Xrotation Yrotation
                  End Site
                  {
                    OFFSET -2.33842 -0.294052 0.168128
                  }
                }
              }
              JOINT rPinky1
              {
                OFFSET -8.27202 -0.0477905 -0.4584
                CHANNELS 3 Zrotation Xrotation Yrotation
                JOINT rPinky2
                {
                  OFFSET -1.82734 -0.647385 -0.700984
                  CHANNELS 3 Zrotation Xrotation Yrotation
                  End Site
                  {
                    OFFSET -1.69225 -0.51767 -0.607171
                  }
                }
              }
            }
          }
        }
      }
      JOINT lCollar
      {
        OFFSET 2.68224 19.2634 -4.8768
        CHANNELS 3 Zrotation Xrotation Yrotation
        JOINT lShldr
        {
          OFFSET 8.77824 -1.95073 1.46304
          CHANNELS 3 Zrotation Xrotation Yrotation
          JOINT lForeArm
          {
            OFFSET 28.1742 -1.7115 0.48768
            CHANNELS 3 Zrotation Xrotation Yrotation
            JOINT lHand
            {
              OFFSET 22.5879 0.773209 7.07136
              CHANNELS 3 Zrotation Xrotation Yrotation
              JOINT lThumb1
              {
                OFFSET 1.2192 -0.487915 3.41376
                CHANNELS 3 Zrotation Xrotation Yrotation
                JOINT lThumb2
                {
                  OFFSET 3.37035 -0.52449 3.41376
                  CHANNELS 3 Zrotation Xrotation Yrotation
                  End Site
                  {
                    OFFSET 1.78271 -1.18214 1.43049
                  }
                }
              }
              JOINT lIndex1
              {
                OFFSET 7.75947 0.938293 5.60832
                CHANNELS 3 Zrotation Xrotation Yrotation
                JOINT lIndex2
                {
                  OFFSET 2.54057 -0.884171 1.56538
                  CHANNELS 3 Zrotation Xrotation Yrotation
                  End Site
                  {
                    OFFSET 1.62519 -0.234802 1.16502
                  }
                }
              }
              JOINT lMid1
              {
                OFFSET 8.24714 1.18213 3.41376
                CHANNELS 3 Zrotation Xrotation Yrotation
                JOINT lMid2
                {
                  OFFSET 3.10165 -0.590103 1.0647
                  CHANNELS 3 Zrotation Xrotation Yrotation
                  End Site
                  {
                    OFFSET 2.48547 -0.328903 0.83742
                  }
                }
              }
              JOINT lRing1
              {
                OFFSET 8.82822 0.546677 1.51678
                CHANNELS 3 Zrotation Xrotation Yrotation
                JOINT lRing2
                {
                  OFFSET 2.60934 -0.819778 -0.0198488
                  CHANNELS 3 Zrotation Xrotation Yrotation
                  End Site
                  {
                    OFFSET 2.33842 -0.294052 0.168128
                  }
                }
              }
              JOINT lPinky1
              {
                OFFSET 8.27202 -0.0477905 -0.4584
                CHANNELS 3 Zrotation Xrotation Yrotation
                JOINT lPinky2
                {
                  OFFSET 1.82734 -0.647385 -0.700984
                  CHANNELS 3 Zrotation Xrotation Yrotation
                  End Site
                  {
                    OFFSET 1.69225 -0.51767 -0.607171
                  }
                }
              }
            }
          }
        }
      }
    }
  }
  JOINT rButtock
  {
    OFFSET -8.77824 4.35084 1.2192
    CHANNELS 3 Zrotation Xrotation Yrotation
    JOINT rThigh
    {
      OFFSET 0.0 -1.70687 -2.19456
      CHANNELS 3 Zrotation Xrotation Yrotation
      JOINT rShin
      {
        OFFSET 0.0 -36.8199 0.73152
        CHANNELS 3 Zrotation Xrotation Yrotation
        JOINT rFoot
        {
          OFFSET 0.73152 -45.1104 -5.12064
          CHANNELS 3 Zrotation Xrotation Yrotation
          End Site
          {
            OFFSET -1.1221 -3.69964 12.103
          }
        }
      }
    }
  }
  JOINT lButtock
  {
    OFFSET 8.77824 4.35084 1.2192
    CHANNELS 3 Zrotation Xrotation Yrotation
    JOINT lThigh
    {
      OFFSET 0.0 -1.70687 -2.19456
      CHANNELS 3 Zrotation Xrotation Yrotation
      JOINT lShin
      {
        OFFSET 0.0 -36.8199 0.73152
        CHANNELS 3 Zrotation Xrotation Yrotation
        JOINT lFoot
        {
          OFFSET -0.73152 -45.1104 -5.12064
          CHANNELS 3 Zrotation Xrotation Yrotation
          End Site
          {
            OFFSET 1.1221 -3.69964 12.103
          }
        }
      }
    }
  }
}
MOTION
Frames: 4
Frame Time: 0.00833333
15.3988 83.5567 -28.2503 2.3863 9.3708 6.3753 2.19141 -1.34507 -10.4826 6.00559 -4.42552 -2.7295 7.46748 -3.41698 2.93092 -14.2783 -3.77857 2.84204 -0.0 0.0 0.0 -0.0 0.0 0.0 8.53333e-14 3.39635e-13 4.34841e-14 70.7546 -7.77988 -17.196 -10.0898 -4.19735 17.9681 -0.00672894 2.47944 0.348756 -1.12566e-09 1.58933e-09 -2.24744e-09 -1.94998e-09 2.7485e-09 -3.88035e-09 -1.12566e-09 1.58934e-09 -2.24745e-09 7.73091 5.47488 0.417314 -1.12566e-09 1.58933e-09 -2.24744e-09 2.90554 0.965183 0.102902 -1.12565e-09 1.58933e-09 -2.24744e-09 10.2786 0.731801 0.0259123 -1.12566e-09 1.58933e-09 -2.24743e-09 2.22167 -0.733487 -0.20892 8.50432e-14 3.39636e-13 4.32139e-14 -74.9488 57.2886 -12.9729 18.2013 -10.9047 -34.4733 0.040839 -5.75162 0.8111 -1.16099e-09 -2.82543e-09 -4.53239e-10 -1.99733e-09 -4.88283e-09 -7.88118e-10 -1.16099e-09 -2.82543e-09 -4.53235e-10 -7.73091 5.47488 -0.417314 -1.16099e-09 -2.82542e-09 -4.53236e-10 -2.90554 0.965183 -0.102902 -1.161e-09 -2.82543e-09 -4.53238e-10 -10.2786 0.731801 -0.0259123 -1.16098e-09 -2.82542e-09 -4.53239e-10 -2.22167 -0.733487 0.20892 -2.03217e-16 0.0 -3.88251e-19 2.33852 -35.3592 -1.37241 -0.250866 33.1792 0.302429 -0.510919 -4.76927 0.545726 2.03217e-16 0.0 3.88251e-19 -5.255 0.553025 1.4396 0.12774 29.3821 -0.719967 11.5011 28.5394 -24.9042
15.3392 83.5852 -27.5473 1.766 9.491 6.1567 3.06204 -1.15423 -10.2894 5.90799 -4.51525 -2.66776 7.35648 -3.56702 2.81998 -14.1866 -3.44908 2.68349 -0.0 0.0 0.0 -0.0 0.0 0.0 8.51298e-14 3.88914e-13 -1.38901e-14 71.2912 -6.58268 -17.1113 -10.346 -4.35508 18.4508 -0.001616 1.4786 0.207846 -1.29868e-09 7.29214e-10 -3.00114e-09 -2.24884e-09 1.2578e-09 -5.18486e-09 -1.29867e-09 7.29222e-10 -3.00115e-09 7.73091 5.47488 0.417314 -1.29868e-09 7.29218e-10 -3.00114e-09 2.90554 0.965183 0.102902 -1.29867e-09 7.2922e-10 -3.00114e-09 10.2786 0.731801 0.0259123 -1.29868e-09 7.2922e-10 -3.00113e-09 2.22167 -0.733487 -0.20892 8.49127e-14 3.88935e-13 -1.41452e-14 -75.0412 57.7 -12.5295 18.2765 -10.9871 -34.6435 0.0402709 -5.71266 0.805567 -1.32007e-09 -2.93927e-09 -4.19788e-10 -2.27107e-09 -5.07832e-09 -7.30194e-10 -1.32007e-09 -2.93927e-09 -4.19782e-10 -7.73091 5.47488 -0.417314 -1.32007e-09 -2.93926e-09 -4.19784e-10 -2.90554 0.965183 -0.102902 -1.32008e-09 -2.93927e-09 -4.19786e-10 -10.2786 0.731801 -0.0259123 -1.32007e-09 -2.93927e-09 -4.19789e-10 -2.22167 -0.733487 0.20892 -2.03217e-16 0.0 -3.88251e-19 2.94488 -34.5772 -1.77412 -0.249204 32.9228 0.267193 -0.424152 -5.30094 0.947213 2.03217e-16 0.0 3.88251e-19 -3.90238 -1.01736 2.02125 0.16547 32.2056 -0.774664 11.718 28.7097 -25.4317
15.2584 83.6139 -26.8399 1.0527 9.5801 5.9039 3.9364 -0.944155 -10.064 5.79852 -4.60593 -2.59688 7.25504 -3.67439 2.71058 -14.1035 -3.23167 2.51604 -0.0 0.0 0.0 -0.0 0.0 0.0 8.01425e-14 4.04014e-13 -4.91495e-14 71.8086 -5.436 -16.9915 -10.5855 -4.50482 18.9041 -0.000475403 0.622581 0.0875016 -1.29182e-09 2.40835e-10 -3.28359e-09 -2.23653e-09 4.11589e-10 -5.67415e-09 -1.29181e-09 2.40843e-10 -3.2836e-09 7.73091 5.47488 0.417314 -1.29182e-09 2.40839e-10 -3.28359e-09 2.90554 0.965183 0.102902 -1.29181e-09 2.40841e-10 -3.28359e-09 10.2786 0.731801 0.0259123 -1.29181e-09 2.40842e-10 -3.28358e-09 2.22167 -0.733487 -0.20892 7.99836e-14 4.04045e-13 -4.9398e-14 -75.2565 57.9448 -11.9742 18.3492 -11.0671 -34.8084 0.0389562 -5.62445 0.793038 -1.33459e-09 -2.83944e-09 -3.67729e-10 -2.29595e-09 -4.90482e-09 -6.39759e-10 -1.33459e-09 -2.83944e-09 -3.67723e-10 -7.73091 5.47488 -0.417314 -1.33458e-09 -2.83944e-09 -3.67726e-10 -2.90554 0.965183 -0.102902 -1.33459e-09 -2.83944e-09 -3.67728e-10 -10.2786 0.731801 -0.0259123 -1.33458e-09 -2.83944e-09 -3.67733e-10 -2.22167 -0.733487 0.20892 -2.03217e-16 0.0 -3.88251e-19 3.58744 -33.7663 -2.15434 -0.246299 32.6241 0.236634 -0.330034 -5.74526 1.36675 2.03217e-16 0.0 3.88251e-19 -2.5099 -2.60211 2.60399 0.211423 35.0598 -0.827619 11.4585 28.1401 -25.5954
15.1635 83.6462 -26.1322 0.2837 9.6396 5.6273 4.85517 -0.705519 -9.80118 5.66396 -4.70441 -2.51569 7.17181 -3.71887 2.60347 -14.0449 -3.17826 2.33386 -0.0 0.0 0.0 -0.0 0.0 0.0 6.37622e-14 3.66528e-13 -4.32885e-14 72.3049 -4.3412 -16.8404 -10.8111 -4.64903 19.3314 -0.00101586 -0.0692656 -0.00967915 -9.54651e-10 4.10046e-10 -2.77777e-09 -1.65301e-09 7.05341e-10 -4.79973e-09 -9.54643e-10 4.10052e-10 -2.77778e-09 7.73091 5.47488 0.417314 -9.54654e-10 4.1005e-10 -2.77777e-09 2.90554 0.965183 0.102902 -9.54642e-10 4.10052e-10 -2.77777e-09 10.2786 0.731801 0.0259123 -9.5465e-10 4.10053e-10 -2.77776e-09 2.22167 -0.733487 -0.20892 6.36438e-14 3.66558e-13 -4.35494e-14 -75.6023 58.0087 -11.2952 18.4235 -11.1494 -34.9771 0.0366818 -5.4655 0.770479 -1.07395e-09 -2.33976e-09 -2.75265e-10 -1.84688e-09 -4.04057e-09 -4.78802e-10 -1.07395e-09 -2.33976e-09 -2.75259e-10 -7.73091 5.47488 -0.417314 -1.07395e-09 -2.33976e-09 -2.75263e-10 -2.90554 0.965183 -0.102902 -1.07396e-09 -2.33976e-09 -2.75263e-10 -10.2786 0.731801 -0.0259123 -1.07394e-09 -2.33976e-09 -2.75269e-10 -2.22167 -0.733487 0.20892 -2.03217e-16 0.0 -3.88251e-19 4.28693 -32.9021 -2.53928 -0.241512 32.2543 0.211782 -0.223561 -6.09386 1.8394 2.03217e-16 0.0 3.88251e-19 -1.03527 -4.19959 3.20421 0.264674 37.9825 -0.876809 10.5954 26.5179 -25.4137
